<?xml version="1.0" encoding="UTF-8"?>
<svg id="Layer_2" data-name="Layer 2" xmlns="http://www.w3.org/2000/svg" viewBox="0 0 541.74 108.32">
  <defs>
    <style>
      .cls-1 {
        letter-spacing: 0em;
      }

      .cls-2 {
        letter-spacing: -.02em;
      }

      .cls-3 {
        font-family: Bahnschrift, Bahnschrift;
        font-size: 91.94px;
        font-variation-settings: 'wght' 400, 'wdth' 100;
      }

      .cls-3, .cls-4 {
        fill: #fff;
      }

      .cls-5 {
        stroke: #fff;
        stroke-width: 2px;
      }

      .cls-5, .cls-6 {
        fill: none;
        stroke-linecap: round;
        stroke-linejoin: round;
      }

      .cls-6 {
        stroke: #c33;
        stroke-width: 7px;
      }
    </style>
  </defs>
  <g id="Layer_1-2" data-name="Layer 1">
    <g>
      <text class="cls-3" transform="translate(0 83.45)"><tspan x="0" y="0">NE</tspan><tspan class="cls-1" x="119.33" y="0">U</tspan><tspan class="cls-2" x="178.68" y="0">R</tspan><tspan x="236.37" y="0" xml:space="preserve">A C  RE</tspan></text>
      <path class="cls-6" d="M412.66,56.28c.65-3.23,2.26-5.49,4.85-8.08,3.23-2.91,4.85-7.11,4.85-11.31,0-10.71-8.68-19.39-19.39-19.39s-19.39,8.68-19.39,19.39c0,3.23.65,7.11,4.85,11.31,2.26,2.26,4.2,4.85,4.85,8.08"/>
      <path class="cls-5" d="M393.27,69.21h19.39"/>
      <path class="cls-5" d="M401.69,1v6.8"/>
      <path class="cls-5" d="M376.7,13.33l4.39,4.39"/>
      <path class="cls-5" d="M421.56,15.96l4.39-4.39"/>
      <path class="cls-5" d="M396.5,82.14h12.93"/>
      <path class="cls-4" d="M385.98,6.18c1.13,1.48,2.18,3.03,3.14,4.63.4.67,1.37.98,2.05.54s.97-1.33.54-2.05c-.96-1.6-2.01-3.14-3.14-4.63-.25-.32-.49-.58-.9-.69-.36-.1-.84-.05-1.16.15s-.6.51-.69.9-.09.84.15,1.16h0Z"/>
      <path class="cls-4" d="M413.63,3.29c-1.13,1.48-2.18,3.03-3.14,4.63-.4.67-.17,1.68.54,2.05s1.62.18,2.05-.54c.96-1.6,2.01-3.14,3.14-4.63.22-.29.24-.83.15-1.16-.1-.35-.36-.73-.69-.9-.35-.18-.77-.28-1.16-.15s-.65.36-.9.69h0Z"/>
    </g>
  </g>
</svg>